<svg width="23" height="25" viewBox="0 0 23 25" fill="none" xmlns="http://www.w3.org/2000/svg">
<g clip-path="url(#clip0_394_75)">
<path d="M6.02839 11.8577H4.37043C4.16113 11.8577 3.99146 12.0242 3.99146 12.2297V13.8574C3.99146 14.0629 4.16113 14.2295 4.37043 14.2295H6.02839C6.23769 14.2295 6.40737 14.0629 6.40737 13.8574V12.2297C6.40737 12.0242 6.23769 11.8577 6.02839 11.8577Z" fill="#CBB89B"/>
<path d="M10.2288 11.8577H8.57087C8.36157 11.8577 8.19189 12.0242 8.19189 12.2297V13.8574C8.19189 14.0629 8.36157 14.2295 8.57087 14.2295H10.2288C10.4381 14.2295 10.6078 14.0629 10.6078 13.8574V12.2297C10.6078 12.0242 10.4381 11.8577 10.2288 11.8577Z" fill="#CBB89B"/>
<path d="M14.4293 11.8577H12.7713C12.562 11.8577 12.3923 12.0242 12.3923 12.2297V13.8574C12.3923 14.0629 12.562 14.2295 12.7713 14.2295H14.4293C14.6386 14.2295 14.8082 14.0629 14.8082 13.8574V12.2297C14.8082 12.0242 14.6386 11.8577 14.4293 11.8577Z" fill="#CBB89B"/>
<path d="M18.63 11.8577H16.972C16.7627 11.8577 16.593 12.0242 16.593 12.2297V13.8574C16.593 14.0629 16.7627 14.2295 16.972 14.2295H18.63C18.8393 14.2295 19.0089 14.0629 19.0089 13.8574V12.2297C19.0089 12.0242 18.8393 11.8577 18.63 11.8577Z" fill="#CBB89B"/>
<path d="M6.02839 15.7679H4.37043C4.16113 15.7679 3.99146 15.9345 3.99146 16.14V17.7677C3.99146 17.9732 4.16113 18.1398 4.37043 18.1398H6.02839C6.23769 18.1398 6.40737 17.9732 6.40737 17.7677V16.14C6.40737 15.9345 6.23769 15.7679 6.02839 15.7679Z" fill="#CBB89B"/>
<path d="M10.2288 15.7679H8.57087C8.36157 15.7679 8.19189 15.9345 8.19189 16.14V17.7677C8.19189 17.9732 8.36157 18.1398 8.57087 18.1398H10.2288C10.4381 18.1398 10.6078 17.9732 10.6078 17.7677V16.14C10.6078 15.9345 10.4381 15.7679 10.2288 15.7679Z" fill="#CBB89B"/>
<path d="M14.4293 15.7679H12.7713C12.562 15.7679 12.3923 15.9345 12.3923 16.14V17.7677C12.3923 17.9732 12.562 18.1398 12.7713 18.1398H14.4293C14.6386 18.1398 14.8082 17.9732 14.8082 17.7677V16.14C14.8082 15.9345 14.6386 15.7679 14.4293 15.7679Z" fill="#CBB89B"/>
<path d="M18.63 15.7679H16.972C16.7627 15.7679 16.593 15.9345 16.593 16.14V17.7677C16.593 17.9732 16.7627 18.1398 16.972 18.1398H18.63C18.8393 18.1398 19.0089 17.9732 19.0089 17.7677V16.14C19.0089 15.9345 18.8393 15.7679 18.63 15.7679Z" fill="#CBB89B"/>
<path d="M6.02839 19.6782H4.37043C4.16113 19.6782 3.99146 19.8448 3.99146 20.0503V21.678C3.99146 21.8835 4.16113 22.0501 4.37043 22.0501H6.02839C6.23769 22.0501 6.40737 21.8835 6.40737 21.678V20.0503C6.40737 19.8448 6.23769 19.6782 6.02839 19.6782Z" fill="#CBB89B"/>
<path d="M10.2288 19.6782H8.57087C8.36157 19.6782 8.19189 19.8448 8.19189 20.0503V21.678C8.19189 21.8835 8.36157 22.0501 8.57087 22.0501H10.2288C10.4381 22.0501 10.6078 21.8835 10.6078 21.678V20.0503C10.6078 19.8448 10.4381 19.6782 10.2288 19.6782Z" fill="#CBB89B"/>
<path d="M14.4293 19.6782H12.7713C12.562 19.6782 12.3923 19.8448 12.3923 20.0503V21.678C12.3923 21.8835 12.562 22.0501 12.7713 22.0501H14.4293C14.6386 22.0501 14.8082 21.8835 14.8082 21.678V20.0503C14.8082 19.8448 14.6386 19.6782 14.4293 19.6782Z" fill="#CBB89B"/>
<path d="M18.63 19.6782H16.972C16.7627 19.6782 16.593 19.8448 16.593 20.0503V21.678C16.593 21.8835 16.7627 22.0501 16.972 22.0501H18.63C18.8393 22.0501 19.0089 21.8835 19.0089 21.678V20.0503C19.0089 19.8448 18.8393 19.6782 18.63 19.6782Z" fill="#CBB89B"/>
<path d="M17.2995 0H17.2992C16.8458 0 16.4783 0.360832 16.4783 0.805941V5.02078C16.4783 5.46589 16.8458 5.82672 17.2992 5.82672H17.2995C17.7529 5.82672 18.1204 5.46589 18.1204 5.02078V0.805941C18.1204 0.360832 17.7529 0 17.2995 0Z" fill="#CBB89B"/>
<path d="M5.64172 0C6.09461 0 6.46264 0.361315 6.46264 0.805941V5.02048C6.46264 5.46541 6.09461 5.82643 5.64172 5.82643C5.18853 5.82643 4.8208 5.46511 4.8208 5.02048V0.805941C4.8205 0.361315 5.18853 0 5.64172 0Z" fill="#CBB89B"/>
<path d="M15.6571 2.16699H7.28369V3.66003H15.6571V2.16699Z" fill="#CBB89B"/>
<path d="M19.3918 2.16699H18.9413V3.66003H19.3918C20.543 3.66003 21.4795 4.57944 21.4795 5.70967V8.90805H1.52078V5.70967C1.52078 4.57944 2.45728 3.66003 3.60851 3.66003H3.99966V2.16699H3.60851C1.61872 2.16699 0 3.75618 0 5.70967V21.4573C0 23.4108 1.61872 25 3.60851 25H19.3918C21.3816 25 23.0003 23.4108 23.0003 21.4573V5.70967C23.0003 3.75618 21.3816 2.16699 19.3918 2.16699ZM21.4792 21.4573C21.4792 22.5876 20.5427 23.507 19.3915 23.507H3.60851C2.45728 23.507 1.52078 22.5876 1.52078 21.4573V10.4008H21.4792V21.4573Z" fill="#CBB89B"/>
</g>
<defs>
<clipPath id="clip0_394_75">
<rect width="23" height="25" fill="white"/>
</clipPath>
</defs>
</svg>
