<?xml version="1.0" encoding="UTF-8"?>
<svg id="Layer_2" data-name="Layer 2" xmlns="http://www.w3.org/2000/svg" viewBox="0 0 77.98 59.37">
  <defs>
    <style>
      .cls-1 {
        fill: #7D7D7D;
      }
    </style>
  </defs>
  <g id="Layer_1-2" data-name="Layer 1">
    <path class="cls-1" d="M20.7,0c-.06,0-.12,0-.19.02l-6.85,2.03-6.86,2.03h0s0,0-.01,0c0,0,0,0,0,0h0c-.11.04-.2.12-.25.22l-2.02,4.09c-.08.16-.03.34.12.44,0,0,0,0,0,0,0,0,.01.01.02.02,0,0,0,0,0,0l6.31,4.31.68,2.28C2.5,20.83-2.16,31.89.98,42.49c3.7,12.48,16.84,19.61,29.32,15.91,5.18-1.54,9.43-4.7,12.37-8.76h0c3.16,1.81,6.78,2.93,10.67,3.1,12.97.59,23.98-9.44,24.62-22.4,0-.03.01-.06.01-.09h0s0-.07,0-.1c.54-12.97-9.51-23.95-22.48-24.54-.59-.02-1.07-.04-1.42-.03-.35.01-.51.02-.66.02-7.39.31-13.95,4.05-18.07,9.72-3.78-2.17-8.15-3.3-12.64-3.13l-.68-2.3,2.94-7.06c.08-.17.02-.37-.14-.46L20.88.06c-.05-.03-.12-.05-.18-.05h0ZM20.09.94l-.55,2.66-4.36-1.2,4.91-1.46ZM20.92,1.03l2.65,1.57-3.17.94.52-2.51ZM13.9,2.87l4.55,1.25-7.69,2.28,3.14-3.53ZM12.57,3.17l-3,3.39-1.91-1.93,4.91-1.46ZM23.85,3.31l-2.86,6.88-1.45.43.72-6.25,3.6-1.07ZM19.37,4.64l-.72,6.25-4.39,1.3-4-4.84,9.11-2.7ZM7,5.16l1.8,1.82-3.17.94,1.37-2.76ZM54.27,6.53c.91,0,1.87.05,2.73.14,11.73,1.34,20.03,11.55,20.03,23.52h0c-.57,12.5-11.15,22.16-23.65,21.59-12.5-.57-22.16-11.15-21.59-23.65.14-2.96.84-5.76,1.99-8.3.88.55,1.72,1.17,2.5,1.86-.86,2.07-1.39,4.32-1.5,6.69-.5,10.93,7.97,20.2,18.89,20.69,10.89.5,20.13-7.92,20.68-18.8,0-.03.01-.06.01-.09h0s0-.07,0-.1c.43-10.48-7.37-19.42-17.68-20.51-.4-.04-.8-.07-1.2-.09-.4-.01-.79-.02-.98-.02-.2,0-.87.02-1.2.04-6,.38-11.31,3.46-14.7,8.07-.78-.65-1.61-1.24-2.47-1.78.55-.75,1.14-1.46,1.77-2.14,4.12-4.39,9.95-7.11,16.37-7.14h0ZM9.39,7.6l4,4.84-1.45.43-6.15-4.21,3.6-1.07ZM55.5,10.45c.4.01.87.05,1.33.11,9.73,1.16,17.16,9.65,16.6,19.59h0c-.47,10.42-9.29,18.47-19.71,18-3.17-.14-6.13-1.07-8.69-2.57,2.14-4.68,2.77-10.08,1.46-15.41-.14-.65-.32-1.2-.52-1.82-1.21-3.64-3.23-6.8-5.8-9.34-.27-.27-.56-.54-.85-.8,3.18-4.37,8.18-7.3,13.84-7.73.8-.07,1.59-.06,2.35-.03h0ZM21.36,11.07l.35,1.2c-1.6.13-3.22.42-4.83.9-1.56.46-3.04,1.08-4.43,1.82l-.35-1.17,9.25-2.74ZM23.18,13.13c.28,0,.57,0,.85,0,.32,0,.65.02.97.04,9.21.58,17.51,6.8,20.29,16.17,1.61,5.42,1.09,10.96-1.07,15.73h0c-.76-.49-1.48-1.04-2.15-1.64,1.54-3.7,1.97-7.89,1.01-12.05-.16-.8-.42-1.55-.68-2.3-2.35-6.5-7.82-11.08-14.19-12.55-1.04-.24-2.12-.4-3.09-.46-.49-.03-.94-.05-1.39-.05s-.88.02-1.32.05c-1.41.1-2.83.35-4.25.77-2.98.89-5.59,2.41-7.74,4.38-3.23,2.96-5.4,6.93-6.15,11.24-.51,2.91-.37,5.98.53,9.01,3.11,10.49,14.14,16.47,24.63,13.36,4.29-1.27,7.83-3.88,10.3-7.23l-.02-.02c.69.55,1.41,1.07,2.16,1.54-.05.08-.1.16-.12.19-2.82,3.78-6.83,6.71-11.7,8.16-12,3.55-24.59-3.28-28.15-15.27-3.55-11.99,3.28-24.59,15.27-28.14,2.01-.59,4.04-.9,6.03-.93h0ZM24.04,16.97c3.16.04,6.22.89,8.92,2.39-1.23,2.68-1.98,5.62-2.12,8.74-.34,7.5,2.88,14.35,8.15,18.91-2.35,3.21-5.74,5.7-9.84,6.92-10,2.96-20.49-2.73-23.46-12.73-.87-2.93-.99-5.9-.48-8.71.73-4.01,2.74-7.7,5.73-10.48,2.06-1.92,4.59-3.41,7.48-4.26,1.88-.55,3.76-.8,5.62-.78h0ZM37.02,22.39c2.21,2.17,3.91,4.91,4.86,8.09h0c1.25,4.2.96,8.49-.54,12.27-3.68-3.63-5.87-8.74-5.62-14.31.1-2.14.55-4.17,1.29-6.05h0Z"/>
  </g>
</svg>