<svg width="72" height="72" viewBox="0 0 72 72" fill="none" xmlns="http://www.w3.org/2000/svg">
<path d="M54 21H18C14.6863 21 12 23.6863 12 27V45C12 48.3137 14.6863 51 18 51H54C57.3137 51 60 48.3137 60 45V27C60 23.6863 57.3137 21 54 21Z" stroke="#CAB891" stroke-width="2.66667"/>
<path d="M36 43.5C40.1421 43.5 43.5 40.1421 43.5 36C43.5 31.8579 40.1421 28.5 36 28.5C31.8579 28.5 28.5 31.8579 28.5 36C28.5 40.1421 31.8579 43.5 36 43.5Z" stroke="#CAB891" stroke-width="2.66667"/>
<path d="M21 21L51 51" stroke="#CAB891" stroke-width="2.66667" stroke-linecap="round"/>
</svg>
