<svg width="72" height="72" viewBox="0 0 72 72" fill="none" xmlns="http://www.w3.org/2000/svg">
<path d="M37.5 22.5H13.5C11.0147 22.5 9 24.5147 9 27V45C9 47.4853 11.0147 49.5 13.5 49.5H37.5C39.9853 49.5 42 47.4853 42 45V27C42 24.5147 39.9853 22.5 37.5 22.5Z" stroke="#CAB891" stroke-width="2.66667"/>
<path d="M13.5 43.5L21 36L27 42L31.5 37.5" stroke="#CAB891" stroke-width="2.13333" stroke-linecap="round"/>
<path d="M27 34.5001C28.6569 34.5001 30 33.1569 30 31.5001C30 29.8432 28.6569 28.5001 27 28.5001C25.3431 28.5001 24 29.8432 24 31.5001C24 33.1569 25.3431 34.5001 27 34.5001Z" stroke="#CAB891" stroke-width="2.13333"/>
<path d="M48 28.5001H63" stroke="#CAB891" stroke-width="2.66667" stroke-linecap="round"/>
<path d="M54 31.5C55.6569 31.5 57 30.1569 57 28.5C57 26.8431 55.6569 25.5 54 25.5C52.3431 25.5 51 26.8431 51 28.5C51 30.1569 52.3431 31.5 54 31.5Z" fill="#CAB891"/>
<path d="M48 40.5H63" stroke="#CAB891" stroke-width="2.66667" stroke-linecap="round"/>
<path d="M58.5 43.5001C60.1569 43.5001 61.5 42.1569 61.5 40.5001C61.5 38.8432 60.1569 37.5001 58.5 37.5001C56.8431 37.5001 55.5 38.8432 55.5 40.5001C55.5 42.1569 56.8431 43.5001 58.5 43.5001Z" fill="#CAB891"/>
</svg>
