<svg width="64" height="64" viewBox="0 0 64 64" fill="none" xmlns="http://www.w3.org/2000/svg">
    <path d="M24.9167 8H14.5833C13.1566 8 12 9.1566 12 10.5833V20.9167C12 22.3434 13.1566 23.5 14.5833 23.5H24.9167C26.3434 23.5 27.5 22.3434 27.5 20.9167V10.5833C27.5 9.1566 26.3434 8 24.9167 8Z" stroke="#CBB89B" stroke-width="2.66667"/>
<path d="M48.1667 8.25H37.8333C36.4066 8.25 35.25 9.4066 35.25 10.8333V21.1667C35.25 22.5934 36.4066 23.75 37.8333 23.75H48.1667C49.5934 23.75 50.75 22.5934 50.75 21.1667V10.8333C50.75 9.4066 49.5934 8.25 48.1667 8.25Z" stroke="#CBB89B" stroke-width="2.66667"/>
<path d="M24.9167 39H14.5833C13.1566 39 12 40.1566 12 41.5833V51.9167C12 53.3434 13.1566 54.5 14.5833 54.5H24.9167C26.3434 54.5 27.5 53.3434 27.5 51.9167V41.5833C27.5 40.1566 26.3434 39 24.9167 39Z" stroke="#CBB89B" stroke-width="2.66667"/>
<path d="M47.9167 39H37.5833C36.1566 39 35 40.1566 35 41.5833V51.9167C35 53.3434 36.1566 54.5 37.5833 54.5H47.9167C49.3434 54.5 50.5 53.3434 50.5 51.9167V41.5833C50.5 40.1566 49.3434 39 47.9167 39Z" stroke="#CBB89B" stroke-width="2.66667"/>
</svg>
